<svg width="27" height="25" viewBox="0 0 27 25" fill="none" xmlns="http://www.w3.org/2000/svg">
<path d="M3.23177 14.046L12.6884 23.4602C13.0142 23.7844 13.177 23.9466 13.369 23.9865C13.4555 24.0045 13.5445 24.0045 13.631 23.9865C13.8231 23.9466 13.9859 23.7844 14.3116 23.4602L23.7682 14.046C26.4289 11.3972 26.752 7.03842 24.5143 3.98187L24.0936 3.40714C21.4165 -0.249368 16.043 0.363851 14.162 4.54053C13.8962 5.13051 13.1038 5.13051 12.838 4.54053C10.9571 0.363851 5.58355 -0.249368 2.90652 3.40715L2.48576 3.98187C0.247979 7.03842 0.571083 11.3972 3.23177 14.046Z" stroke="black" stroke-width="1.8"/>
</svg>
