<svg width="22" height="26" viewBox="0 0 22 26" fill="none" xmlns="http://www.w3.org/2000/svg">
<g id="profile icon">
<path id="Vector" d="M10.9997 12.8333C12.2688 12.8333 13.5094 12.457 14.5646 11.7519C15.6198 11.0469 16.4422 10.0447 16.9279 8.87222C17.4136 7.69973 17.5406 6.40955 17.293 5.16484C17.0455 3.92013 16.4343 2.77679 15.5369 1.8794C14.6396 0.982014 13.4962 0.370886 12.2515 0.123297C11.0068 -0.124291 9.71661 0.00278023 8.54412 0.488442C7.37163 0.974105 6.36948 1.79654 5.66441 2.85176C4.95934 3.90698 4.58301 5.14757 4.58301 6.41667C4.58301 8.11847 5.25905 9.75058 6.46241 10.9539C7.66576 12.1573 9.29787 12.8333 10.9997 12.8333ZM10.9997 1.83334C11.9062 1.83334 12.7923 2.10214 13.546 2.60577C14.2998 3.10939 14.8872 3.82521 15.2341 4.6627C15.581 5.5002 15.6718 6.42175 15.4949 7.31083C15.3181 8.19991 14.8816 9.01658 14.2406 9.65757C13.5996 10.2986 12.7829 10.7351 11.8938 10.9119C11.0048 11.0888 10.0832 10.998 9.24571 10.6511C8.40821 10.3042 7.6924 9.71676 7.18877 8.96303C6.68515 8.20931 6.41634 7.32317 6.41634 6.41667C6.41634 5.20109 6.89923 4.0353 7.75877 3.17576C8.61831 2.31622 9.7841 1.83334 10.9997 1.83334Z" fill="black"/>
<path id="Vector_2" d="M11.9167 14.6665H10.0833C7.40907 14.6665 4.84433 15.7289 2.95334 17.6198C1.06235 19.5108 0 22.0756 0 24.7498C0 24.993 0.0965773 25.2261 0.268486 25.398C0.440394 25.5699 0.673552 25.6665 0.916667 25.6665H21.0833C21.3264 25.6665 21.5596 25.5699 21.7315 25.398C21.9034 25.2261 22 24.993 22 24.7498C22 22.0756 20.9377 19.5108 19.0467 17.6198C17.1557 15.7289 14.5909 14.6665 11.9167 14.6665ZM1.88833 23.8332C2.11374 21.8171 3.07405 19.9547 4.58579 18.602C6.09753 17.2492 8.05469 16.5008 10.0833 16.4998H11.9167C13.9453 16.5008 15.9025 17.2492 17.4142 18.602C18.9259 19.9547 19.8863 21.8171 20.1117 23.8332H1.88833Z" fill="black"/>
</g>
</svg>
